<svg width="437" height="121" viewBox="0 0 437 121" fill="none" xmlns="http://www.w3.org/2000/svg">
<rect width="437" height="121" fill="#4AD5FF"/>
<path d="M80 121L53 89L91 28L130 63V48H153L167 61L183 56L201 68.5L206 67L201.5 62L215.5 56L229 65L249.5 56L260 63L267 49L349.5 121H80Z" fill="#18BCEE"/>
<ellipse cx="72.6647" cy="59.2569" rx="15.2272" ry="36.5" transform="rotate(29.6126 72.6647 59.2569)" fill="#18BCEE"/>
<ellipse rx="15.2272" ry="36.5" transform="matrix(-0.869386 0.494133 0.494133 0.869386 71.5 59.2569)" fill="#18BCEE"/>
<ellipse rx="15.2272" ry="36.5" transform="matrix(0 1 1 0 71.5 59.2569)" fill="#18BCEE"/>
<path d="M84.1643 65.6924C79.2818 74.2827 73.4521 81.1507 68.0481 85.3337C65.3425 87.428 62.8247 88.7863 60.6552 89.3995C58.4954 90.0099 56.84 89.8453 55.6171 89.1502C54.3942 88.4552 53.4058 87.1171 52.8252 84.9491C52.2419 82.7714 52.1207 79.9132 52.5358 76.5169C53.3647 69.7336 56.2827 61.2107 61.1651 52.6204C66.0476 44.0301 71.8774 37.1622 77.2813 32.9792C79.987 30.8848 82.5047 29.5265 84.6742 28.9133C86.834 28.3029 88.4894 28.4675 89.7123 29.1626C90.9352 29.8576 91.9236 31.1957 92.5043 33.3637C93.0875 35.5414 93.2087 38.3996 92.7937 41.7959C91.9647 48.5792 89.0467 57.1021 84.1643 65.6924Z" stroke="white" stroke-width="4"/>
<path d="M60.0005 65.6924C64.8829 74.2827 70.7127 81.1507 76.1166 85.3337C78.8223 87.428 81.3401 88.7863 83.5095 89.3995C85.6693 90.0099 87.3247 89.8453 88.5476 89.1502C89.7705 88.4552 90.7589 87.1171 91.3396 84.9491C91.9228 82.7714 92.044 79.9132 91.629 76.5169C90.8 69.7336 87.882 61.2107 82.9996 52.6204C78.1171 44.0301 72.2874 37.1622 66.8835 32.9792C64.1778 30.8848 61.66 29.5265 59.4905 28.9133C57.3307 28.3029 55.6754 28.4675 54.4524 29.1626C53.2295 29.8576 52.2411 31.1957 51.6605 33.3637C51.0772 35.5414 50.956 38.3996 51.3711 41.7959C52.2 48.5792 55.118 57.1021 60.0005 65.6924Z" stroke="white" stroke-width="4"/>
<path d="M71.5 72.3836C81.3809 72.3836 90.2324 70.709 96.5394 68.0779C99.6971 66.7605 102.122 65.2427 103.727 63.6596C105.325 62.0835 106 60.5631 106 59.1564C106 57.7498 105.325 56.2293 103.727 54.6532C102.122 53.0701 99.6971 51.5523 96.5394 50.235C90.2324 47.6038 81.3809 45.9292 71.5 45.9292C61.6191 45.9292 52.7676 47.6038 46.4606 50.235C43.3029 51.5523 40.8779 53.0701 39.2728 54.6532C37.6749 56.2293 37 57.7498 37 59.1564C37 60.5631 37.6749 62.0835 39.2728 63.6596C40.8779 65.2427 43.3029 66.7605 46.4606 68.0779C52.7676 70.709 61.6191 72.3836 71.5 72.3836Z" stroke="white" stroke-width="4"/>
<circle cx="72.3484" cy="59.0101" r="6.5" fill="white"/>
<circle cx="349" cy="57" r="46" fill="white"/>
<path d="M133.188 84.0938C130.958 84.0938 129.844 83.5104 129.844 82.3438V47.3125C129.844 46.5417 130.021 45.9896 130.375 45.6562C130.729 45.3021 131.292 45.125 132.062 45.125H142.906C152.115 45.125 156.719 48.5938 156.719 55.5312C156.719 57.6354 156.125 59.4479 154.938 60.9688C153.771 62.4896 152.198 63.625 150.219 64.375V64.5938C150.906 64.8854 151.625 65.5104 152.375 66.4688C153.146 67.4271 153.76 68.5104 154.219 69.7188L159.125 81.9375C159.292 82.4375 159.375 82.7917 159.375 83C159.375 83.7292 158.271 84.0938 156.062 84.0938H153.781C151.927 84.0938 150.854 83.7083 150.562 82.9375L146.156 72.0938C145.74 71.2604 145.333 70.6146 144.938 70.1562C144.562 69.6979 144.031 69.3542 143.344 69.125C142.656 68.875 141.729 68.75 140.562 68.75H138.406V82.3438C138.406 83.5104 137.292 84.0938 135.062 84.0938H133.188ZM143.656 61.375C144.406 61.375 145.115 61.1667 145.781 60.75C146.448 60.3125 146.979 59.7292 147.375 59C147.771 58.2708 147.969 57.4688 147.969 56.5938C147.969 55.3021 147.542 54.2812 146.688 53.5312C145.854 52.7604 144.719 52.375 143.281 52.375H138.406V61.375H143.656ZM178.701 84.4688C173.826 84.4688 170.191 83.1667 167.795 80.5625C165.399 77.9375 164.201 74.3021 164.201 69.6562C164.201 64.4271 165.399 60.5938 167.795 58.1562C170.191 55.7188 173.493 54.5 177.701 54.5C180.493 54.5 182.774 55.1354 184.545 56.4062C186.337 57.6771 187.639 59.3854 188.451 61.5312C189.285 63.6771 189.701 66.1042 189.701 68.8125C189.701 69.125 189.514 69.5417 189.139 70.0625C188.785 70.5833 188.378 71.0521 187.92 71.4688C187.462 71.8854 187.107 72.0938 186.857 72.0938H172.701C172.889 74.2188 173.514 75.7292 174.576 76.625C175.66 77.5 177.16 77.9375 179.076 77.9375C180.118 77.9375 181.055 77.8229 181.889 77.5938C182.743 77.3438 183.649 77.0208 184.607 76.625C185.191 76.3542 185.587 76.2188 185.795 76.2188C186.17 76.2188 186.576 76.4896 187.014 77.0312C187.472 77.5521 187.857 78.1562 188.17 78.8438C188.503 79.5312 188.67 80.0625 188.67 80.4375C188.67 81.2917 188.087 82.0208 186.92 82.625C185.774 83.2292 184.41 83.6875 182.826 84C181.264 84.3125 179.889 84.4688 178.701 84.4688ZM181.701 66.625C181.701 64.9167 181.368 63.5521 180.701 62.5312C180.035 61.4896 179.035 60.9688 177.701 60.9688C174.951 60.9688 173.285 62.8542 172.701 66.625H181.701ZM204.34 84.4688C201.507 84.4688 199.423 83.7292 198.09 82.25C196.777 80.75 196.121 78.7708 196.121 76.3125C196.121 74.4583 196.507 72.7917 197.277 71.3125C198.048 69.8125 199.611 68.5521 201.965 67.5312C204.319 66.5104 207.684 66 212.059 66V64.1562C212.059 63.0729 211.715 62.2708 211.027 61.75C210.34 61.2292 209.246 60.9688 207.746 60.9688C206.496 60.9688 205.423 61.1042 204.527 61.375C203.632 61.625 202.663 61.9688 201.621 62.4062C201.08 62.6562 200.746 62.7812 200.621 62.7812C200.246 62.7812 199.83 62.5 199.371 61.9375C198.934 61.375 198.548 60.7292 198.215 60C197.882 59.2708 197.715 58.7188 197.715 58.3438C197.715 57.6979 198.173 57.0833 199.09 56.5C200.027 55.8958 201.309 55.4167 202.934 55.0625C204.559 54.6875 206.361 54.5 208.34 54.5C212.507 54.5 215.538 55.3333 217.434 57C219.33 58.6458 220.277 60.9062 220.277 63.7812V74.1875C220.277 75.9167 220.319 77.2604 220.402 78.2188C220.507 79.1771 220.642 80.125 220.809 81.0625C220.913 81.625 220.965 82.0208 220.965 82.25C220.965 82.6667 220.569 83.0104 219.777 83.2812C219.007 83.5521 218.121 83.75 217.121 83.875C216.121 84 215.319 84.0625 214.715 84.0625C214.069 84.0625 213.6 83.7917 213.309 83.25C213.038 82.6875 212.819 81.9271 212.652 80.9688C212.632 80.8438 212.611 80.7188 212.59 80.5938C212.569 80.4688 212.538 80.3438 212.496 80.2188C212.288 80.6146 211.84 81.1458 211.152 81.8125C210.486 82.4792 209.569 83.0938 208.402 83.6562C207.236 84.1979 205.882 84.4688 204.34 84.4688ZM207.059 77.9375C208.1 77.9375 209.08 77.6146 209.996 76.9688C210.913 76.3021 211.6 75.4583 212.059 74.4375V71.375C206.871 71.375 204.277 72.7396 204.277 75.4688C204.277 76.1979 204.517 76.7917 204.996 77.25C205.496 77.7083 206.184 77.9375 207.059 77.9375ZM242.323 84.4688C237.593 84.4688 234.083 83.25 231.791 80.8125C229.5 78.3542 228.354 74.6354 228.354 69.6562C228.354 64.6354 229.51 60.8542 231.823 58.3125C234.135 55.7708 237.739 54.5 242.635 54.5C244.031 54.5 245.437 54.6562 246.854 54.9688C248.291 55.2604 249.479 55.6979 250.416 56.2812C251.375 56.8438 251.854 57.5312 251.854 58.3438C251.854 58.6771 251.666 59.1979 251.291 59.9062C250.937 60.6146 250.52 61.25 250.041 61.8125C249.583 62.3542 249.198 62.625 248.885 62.625C248.739 62.625 248.416 62.4792 247.916 62.1875C247.125 61.8125 246.375 61.5208 245.666 61.3125C244.958 61.0833 244.093 60.9688 243.073 60.9688C240.885 60.9688 239.291 61.6667 238.291 63.0625C237.291 64.4375 236.791 66.5625 236.791 69.4375C236.791 72.3333 237.26 74.4792 238.198 75.875C239.156 77.25 240.677 77.9375 242.76 77.9375C243.906 77.9375 244.906 77.8229 245.76 77.5938C246.614 77.3438 247.427 77.0312 248.198 76.6562C248.343 76.5938 248.52 76.5208 248.729 76.4375C248.937 76.3542 249.093 76.3125 249.198 76.3125C249.573 76.3125 249.979 76.5833 250.416 77.125C250.875 77.6458 251.26 78.25 251.573 78.9375C251.906 79.625 252.073 80.1562 252.073 80.5312C252.073 81.4896 251.448 82.2604 250.198 82.8438C248.948 83.4271 247.552 83.8438 246.01 84.0938C244.468 84.3438 243.239 84.4688 242.323 84.4688ZM267.274 84.4688C264.628 84.4688 262.607 83.7292 261.211 82.25C259.836 80.75 259.149 78.4792 259.149 75.4375V61.4375H258.274C257.69 61.4375 257.263 61.2188 256.992 60.7812C256.742 60.3438 256.617 59.6354 256.617 58.6562V57.7188C256.617 56.7396 256.742 56.0312 256.992 55.5938C257.263 55.1562 257.69 54.9375 258.274 54.9375H259.149L259.867 49.6562C260.034 48.4896 261.034 47.9062 262.867 47.9062H264.617C265.576 47.9062 266.274 48.0521 266.711 48.3438C267.17 48.6354 267.399 49.0729 267.399 49.6562V54.9375H270.117C270.701 54.9375 271.117 55.1562 271.367 55.5938C271.638 56.0312 271.774 56.7396 271.774 57.7188V58.6562C271.774 59.6354 271.638 60.3438 271.367 60.7812C271.117 61.2188 270.701 61.4375 270.117 61.4375H267.399V75.5312C267.399 76.3854 267.545 77 267.836 77.375C268.149 77.75 268.659 77.9375 269.367 77.9375C269.576 77.9375 269.857 77.9062 270.211 77.8438C270.565 77.7604 270.784 77.7188 270.867 77.7188C271.201 77.7188 271.492 78 271.742 78.5625C272.013 79.1042 272.222 79.7083 272.367 80.375C272.534 81.0417 272.617 81.4896 272.617 81.7188C272.617 83.5521 270.836 84.4688 267.274 84.4688Z" fill="white"/>
<path d="M337.302 81.9999V34.0208L322.5 40.1458" stroke="black" stroke-width="2"/>
<path d="M369.113 44.0943C369.113 49.5618 364.087 54.1887 357.632 54.1887C351.177 54.1887 346.151 49.5618 346.151 44.0943C346.151 38.6269 351.177 34 357.632 34C364.087 34 369.113 38.6269 369.113 44.0943Z" stroke="black" stroke-width="2"/>
<path d="M370.962 68.1321C370.962 75.2082 365.025 81 357.632 81C350.239 81 344.302 75.2082 344.302 68.1321C344.302 61.056 350.239 55.2642 357.632 55.2642C365.025 55.2642 370.962 61.056 370.962 68.1321Z" stroke="black" stroke-width="2"/>
</svg>
